<svg xmlns="http://www.w3.org/2000/svg" id="a9d5c6ed-9ea4-42a3-ab78-5bac3f9dde90" width="1054.402" height="786.127" data-name="Layer 1" viewBox="0 0 1054.402 786.127"><title>elements</title><path fill="#f2f2f2" d="M498.79886,510c-30.59473,113.5885-95.36335,213-213,213s-213-95.36335-213-213,123.98953-136.08759,213-213C466.55258,140.81384,593.81015,157.25343,498.79886,510Z" transform="translate(-72.79886 -56.4364)"/><circle cx="488.402" cy="105" r="68" fill="#ff6584"/><rect width="36" height="36" x="575.402" y="10" fill="#ff6584"/><ellipse cx="215.598" cy="667" fill="#3f3d56" rx="170" ry="23.127"/><rect width="230" height="117" x="263.402" y="129" fill="#10c755"/><circle cx="206.402" cy="554" r="79" fill="#2f2e41"/><rect width="24" height="43" x="170.402" y="616" fill="#2f2e41"/><rect width="24" height="43" x="218.402" y="616" fill="#2f2e41"/><ellipse cx="190.402" cy="659.5" fill="#2f2e41" rx="20" ry="7.5"/><ellipse cx="238.402" cy="658.5" fill="#2f2e41" rx="20" ry="7.5"/><circle cx="208.402" cy="534" r="27" fill="#fff"/><circle cx="208.402" cy="534" r="9" fill="#3f3d56"/><path fill="#10c755" d="M202.56847,536.96867c-6.37889-28.56758,14.01185-57.43391,45.544-64.47476s62.2651,10.41,68.644,38.97759-14.51861,39.1038-46.05075,46.14465S208.94736,565.53625,202.56847,536.96867Z" transform="translate(-72.79886 -56.4364)"/><circle cx="179.402" cy="327" r="79" fill="#2f2e41"/><rect width="24" height="43" x="143.402" y="389" fill="#2f2e41"/><rect width="24" height="43" x="191.402" y="389" fill="#2f2e41"/><ellipse cx="163.402" cy="432.5" fill="#2f2e41" rx="20" ry="7.5"/><ellipse cx="211.402" cy="431.5" fill="#2f2e41" rx="20" ry="7.5"/><circle cx="181.402" cy="307" r="27" fill="#fff"/><circle cx="181.402" cy="307" r="9" fill="#3f3d56"/><path fill="#10c755" d="M175.56847,309.96867c-6.37889-28.56758,14.01185-57.43391,45.544-64.47476s62.2651,10.41,68.644,38.97759-14.51861,39.1038-46.05075,46.14465S181.94736,338.53625,175.56847,309.96867Z" transform="translate(-72.79886 -56.4364)"/><ellipse cx="325.221" cy="323.78" fill="#2f2e41" rx="39.5" ry="12.4" transform="translate(-166.13203 455.53148) rotate(-69.08217)"/><ellipse cx="163.221" cy="346.78" fill="#2f2e41" rx="12.4" ry="39.5" transform="translate(-292.84839 289.2128) rotate(-64.62574)"/><path fill="#fff" d="M213.39658,411.9364c0,7.732,19.90861,23,42,23s42.80456-21.768,42.80456-29.5-20.71317,1.5-42.80456,1.5S213.39658,404.20441,213.39658,411.9364Z" transform="translate(-72.79886 -56.4364)"/><rect width="230" height="117" x="285.402" y="112" fill="none" stroke="#3f3d56" stroke-miterlimit="10" stroke-width="2"/><rect width="36" height="36" x="587.402" y="1" fill="none" stroke="#3f3d56" stroke-miterlimit="10" stroke-width="2"/><path fill="#f2f2f2" d="M1127.20114,596.73349c0,81.82751-48.64516,110.39862-108.652,110.39862s-108.652-28.57111-108.652-110.39862,108.652-185.925,108.652-185.925S1127.20114,514.906,1127.20114,596.73349Z" transform="translate(-72.79886 -56.4364)"/><polygon fill="#3f3d56" points="941.792 638.179 942.905 569.696 989.215 484.974 943.079 558.954 943.58 528.161 975.496 466.865 943.712 520.012 943.712 520.013 944.612 464.631 978.789 415.832 944.753 455.922 945.315 354.372 941.783 488.806 942.073 483.26 907.325 430.072 941.516 493.906 938.278 555.758 938.182 554.116 898.123 498.144 938.06 559.916 937.655 567.651 937.583 567.767 937.616 568.402 929.402 725.325 940.377 725.325 941.693 644.272 981.533 582.651 941.792 638.179"/><ellipse cx="934.07" cy="725.322" fill="#3f3d56" rx="37.779" ry="11.194"/><ellipse cx="764.598" cy="763" fill="#3f3d56" rx="170" ry="23.127"/><circle cx="766.598" cy="644.5" r="79" fill="#2f2e41"/><rect width="24" height="43" x="851.397" y="762.936" fill="#2f2e41" transform="translate(1653.99431 1512.4364) rotate(-180)"/><rect width="24" height="43" x="803.397" y="762.936" fill="#2f2e41" transform="translate(1557.99431 1512.4364) rotate(-180)"/><ellipse cx="810.397" cy="810.436" fill="#2f2e41" rx="20" ry="7.5" transform="translate(-369.4445 457.33979) rotate(-30)"/><ellipse cx="857.397" cy="810.436" fill="#2f2e41" rx="20" ry="7.5" transform="translate(-363.1477 480.83979) rotate(-30)"/><circle cx="764.598" cy="624.5" r="27" fill="#fff"/><circle cx="755.402" cy="613" r="9" fill="#3f3d56"/><path fill="#10c755" d="M916.02925,627.46867c6.37889-28.56758-14.01185-57.43391-45.544-64.47476s-62.2651,10.41-68.644,38.97759,14.51862,39.1038,46.05076,46.14465S909.65036,656.03625,916.02925,627.46867Z" transform="translate(-72.79886 -56.4364)"/><ellipse cx="770.181" cy="673.78" fill="#2f2e41" rx="12.4" ry="39.5" transform="translate(-225.09638 1060.27881) rotate(-66.82884)"/><ellipse cx="918.181" cy="726.78" fill="#2f2e41" rx="12.4" ry="39.5" transform="translate(-184.05598 1228.48577) rotate(-66.82884)"/><rect width="36" height="36" x="633.402" y="570" fill="#ff6584"/><rect width="36" height="36" x="595.402" y="506" fill="none" stroke="#3f3d56" stroke-miterlimit="10" stroke-width="2"/><path fill="#fff" d="M855.20114,735.4364a18,18,0,0,1-36,0c0-9.94113,8.05887-12,18-12S855.20114,725.49527,855.20114,735.4364Z" transform="translate(-72.79886 -56.4364)"/></svg>